<svg width="416" height="466" viewBox="0 0 416 466" fill="none" xmlns="http://www.w3.org/2000/svg">
<g filter="url(#filter0_d_3_41)">
<rect width="400" height="200" fill="#3347B0"/>
<rect x="0.5" y="0.5" width="399" height="199" stroke="black"/>
</g>
<path d="M135.835 138.713L126.686 136.059C125.726 135.789 125.186 134.784 125.456 133.824L145.93 63.2993C146.2 62.3394 147.205 61.7994 148.165 62.0694L157.314 64.7242C158.274 64.9942 158.814 65.9991 158.544 66.959L138.07 137.484C137.785 138.443 136.795 138.998 135.835 138.713ZM118.737 121.885L125.261 114.925C125.951 114.19 125.906 113.02 125.141 112.345L111.552 100.391L125.141 88.4374C125.906 87.7624 125.966 86.5925 125.261 85.8576L118.737 78.8981C118.062 78.1782 116.922 78.1332 116.187 78.8231L94.5737 99.0715C93.8088 99.7765 93.8088 100.991 94.5737 101.696L116.187 121.96C116.922 122.65 118.062 122.62 118.737 121.885ZM167.813 121.975L189.426 101.711C190.191 101.006 190.191 99.7915 189.426 99.0865L167.813 78.8081C167.093 78.1332 165.953 78.1632 165.263 78.8831L158.739 85.8426C158.049 86.5775 158.094 87.7474 158.859 88.4224L172.448 100.391L158.859 112.345C158.094 113.02 158.034 114.19 158.739 114.925L165.263 121.885C165.938 122.62 167.078 122.65 167.813 121.975Z" fill="white"/>
<path d="M231.844 121H222.125L222.188 114.781H231.844C234.656 114.781 237.01 114.167 238.906 112.938C240.823 111.708 242.26 109.948 243.219 107.656C244.198 105.365 244.688 102.635 244.688 99.4688V97C244.688 94.5417 244.406 92.3646 243.844 90.4688C243.302 88.5729 242.49 86.9792 241.406 85.6875C240.344 84.3958 239.031 83.4167 237.469 82.75C235.927 82.0833 234.146 81.75 232.125 81.75H221.938V75.5H232.125C235.146 75.5 237.906 76.0104 240.406 77.0312C242.906 78.0312 245.062 79.4792 246.875 81.375C248.708 83.2708 250.115 85.5417 251.094 88.1875C252.073 90.8333 252.562 93.7917 252.562 97.0625V99.4688C252.562 102.74 252.073 105.698 251.094 108.344C250.115 110.99 248.708 113.26 246.875 115.156C245.042 117.031 242.854 118.479 240.312 119.5C237.792 120.5 234.969 121 231.844 121ZM226.469 75.5V121H218.625V75.5H226.469ZM284.375 109.281C284.375 108.344 284.229 107.51 283.938 106.781C283.667 106.052 283.177 105.385 282.469 104.781C281.76 104.177 280.76 103.594 279.469 103.031C278.198 102.448 276.573 101.854 274.594 101.25C272.427 100.583 270.427 99.8438 268.594 99.0312C266.781 98.1979 265.198 97.2396 263.844 96.1562C262.49 95.0521 261.438 93.7917 260.688 92.375C259.938 90.9375 259.562 89.2812 259.562 87.4062C259.562 85.5521 259.948 83.8646 260.719 82.3438C261.51 80.8229 262.625 79.5104 264.062 78.4062C265.521 77.2812 267.24 76.4167 269.219 75.8125C271.198 75.1875 273.385 74.875 275.781 74.875C279.156 74.875 282.062 75.5 284.5 76.75C286.958 78 288.844 79.6771 290.156 81.7812C291.49 83.8854 292.156 86.2083 292.156 88.75H284.375C284.375 87.25 284.052 85.9271 283.406 84.7812C282.781 83.6146 281.823 82.6979 280.531 82.0312C279.26 81.3646 277.646 81.0312 275.688 81.0312C273.833 81.0312 272.292 81.3125 271.062 81.875C269.833 82.4375 268.917 83.1979 268.312 84.1562C267.708 85.1146 267.406 86.1979 267.406 87.4062C267.406 88.2604 267.604 89.0417 268 89.75C268.396 90.4375 269 91.0833 269.812 91.6875C270.625 92.2708 271.646 92.8229 272.875 93.3438C274.104 93.8646 275.552 94.3646 277.219 94.8438C279.74 95.5938 281.938 96.4271 283.812 97.3438C285.688 98.2396 287.25 99.2604 288.5 100.406C289.75 101.552 290.688 102.854 291.312 104.312C291.938 105.75 292.25 107.385 292.25 109.219C292.25 111.135 291.865 112.865 291.094 114.406C290.323 115.927 289.219 117.229 287.781 118.312C286.365 119.375 284.656 120.198 282.656 120.781C280.677 121.344 278.469 121.625 276.031 121.625C273.844 121.625 271.688 121.333 269.562 120.75C267.458 120.167 265.542 119.281 263.812 118.094C262.083 116.885 260.708 115.385 259.688 113.594C258.667 111.781 258.156 109.667 258.156 107.25H266C266 108.729 266.25 109.99 266.75 111.031C267.271 112.073 267.99 112.927 268.906 113.594C269.823 114.24 270.885 114.719 272.094 115.031C273.323 115.344 274.635 115.5 276.031 115.5C277.865 115.5 279.396 115.24 280.625 114.719C281.875 114.198 282.812 113.469 283.438 112.531C284.062 111.594 284.375 110.51 284.375 109.281Z" fill="white"/>
<g filter="url(#filter1_d_3_41)">
<rect y="250" width="400" height="200" fill="#3347B0"/>
</g>
<path d="M133 351.6V349.2C133 347.874 131.926 346.8 130.6 346.8H88.6V340.8H99.4C102.05 340.8 104.2 338.651 104.2 336V316.8C104.2 314.15 102.05 312 99.4 312H70.6C67.9495 312 65.8 314.15 65.8 316.8V336C65.8 338.651 67.9495 340.8 70.6 340.8H81.4V346.8H39.4C38.074 346.8 37 347.874 37 349.2V351.6C37 352.926 38.074 354 39.4 354H55V360H46.6C43.9495 360 41.8 362.15 41.8 364.8V384C41.8 386.651 43.9495 388.8 46.6 388.8H70.6C73.2505 388.8 75.4 386.651 75.4 384V364.8C75.4 362.15 73.2505 360 70.6 360H62.2V354H107.8V360H99.4C96.7495 360 94.6 362.15 94.6 364.8V384C94.6 386.651 96.7495 388.8 99.4 388.8H123.4C126.051 388.8 128.2 386.651 128.2 384V364.8C128.2 362.15 126.051 360 123.4 360H115V354H130.6C131.926 354 133 352.926 133 351.6ZM75.4 331.2V321.6H94.6V331.2H75.4ZM65.8 379.2H51.4V369.6H65.8V379.2ZM118.6 379.2H104.2V369.6H118.6V379.2Z" fill="white"/>
<path d="M161.625 325.5H177.719C181.177 325.5 184.125 326.021 186.562 327.062C189 328.104 190.865 329.646 192.156 331.688C193.469 333.708 194.125 336.208 194.125 339.188C194.125 341.458 193.708 343.458 192.875 345.188C192.042 346.917 190.865 348.375 189.344 349.562C187.823 350.729 186.01 351.635 183.906 352.281L181.531 353.438H167.062L167 347.219H177.844C179.719 347.219 181.281 346.885 182.531 346.219C183.781 345.552 184.719 344.646 185.344 343.5C185.99 342.333 186.312 341.021 186.312 339.562C186.312 337.979 186 336.604 185.375 335.438C184.771 334.25 183.833 333.344 182.562 332.719C181.292 332.073 179.677 331.75 177.719 331.75H169.469V371H161.625V325.5ZM187.594 371L176.906 350.562L185.125 350.531L195.969 370.594V371H187.594ZM231.719 364.781V371H207.562V364.781H231.719ZM209.781 325.5V371H201.938V325.5H209.781ZM228.562 344.5V350.625H207.562V344.5H228.562ZM231.562 325.5V331.75H207.562V325.5H231.562ZM251.344 371H241.625L241.688 364.781H251.344C254.156 364.781 256.51 364.167 258.406 362.938C260.323 361.708 261.76 359.948 262.719 357.656C263.698 355.365 264.188 352.635 264.188 349.469V347C264.188 344.542 263.906 342.365 263.344 340.469C262.802 338.573 261.99 336.979 260.906 335.688C259.844 334.396 258.531 333.417 256.969 332.75C255.427 332.083 253.646 331.75 251.625 331.75H241.438V325.5H251.625C254.646 325.5 257.406 326.01 259.906 327.031C262.406 328.031 264.562 329.479 266.375 331.375C268.208 333.271 269.615 335.542 270.594 338.188C271.573 340.833 272.062 343.792 272.062 347.062V349.469C272.062 352.74 271.573 355.698 270.594 358.344C269.615 360.99 268.208 363.26 266.375 365.156C264.542 367.031 262.354 368.479 259.812 369.5C257.292 370.5 254.469 371 251.344 371ZM245.969 325.5V371H238.125V325.5H245.969ZM309.719 364.781V371H285.562V364.781H309.719ZM287.781 325.5V371H279.938V325.5H287.781ZM306.562 344.5V350.625H285.562V344.5H306.562ZM309.562 325.5V331.75H285.562V325.5H309.562ZM340.062 359.281C340.062 358.344 339.917 357.51 339.625 356.781C339.354 356.052 338.865 355.385 338.156 354.781C337.448 354.177 336.448 353.594 335.156 353.031C333.885 352.448 332.26 351.854 330.281 351.25C328.115 350.583 326.115 349.844 324.281 349.031C322.469 348.198 320.885 347.24 319.531 346.156C318.177 345.052 317.125 343.792 316.375 342.375C315.625 340.938 315.25 339.281 315.25 337.406C315.25 335.552 315.635 333.865 316.406 332.344C317.198 330.823 318.312 329.51 319.75 328.406C321.208 327.281 322.927 326.417 324.906 325.812C326.885 325.188 329.073 324.875 331.469 324.875C334.844 324.875 337.75 325.5 340.188 326.75C342.646 328 344.531 329.677 345.844 331.781C347.177 333.885 347.844 336.208 347.844 338.75H340.062C340.062 337.25 339.74 335.927 339.094 334.781C338.469 333.615 337.51 332.698 336.219 332.031C334.948 331.365 333.333 331.031 331.375 331.031C329.521 331.031 327.979 331.312 326.75 331.875C325.521 332.438 324.604 333.198 324 334.156C323.396 335.115 323.094 336.198 323.094 337.406C323.094 338.26 323.292 339.042 323.688 339.75C324.083 340.438 324.688 341.083 325.5 341.688C326.312 342.271 327.333 342.823 328.562 343.344C329.792 343.865 331.24 344.365 332.906 344.844C335.427 345.594 337.625 346.427 339.5 347.344C341.375 348.24 342.938 349.26 344.188 350.406C345.438 351.552 346.375 352.854 347 354.312C347.625 355.75 347.938 357.385 347.938 359.219C347.938 361.135 347.552 362.865 346.781 364.406C346.01 365.927 344.906 367.229 343.469 368.312C342.052 369.375 340.344 370.198 338.344 370.781C336.365 371.344 334.156 371.625 331.719 371.625C329.531 371.625 327.375 371.333 325.25 370.75C323.146 370.167 321.229 369.281 319.5 368.094C317.771 366.885 316.396 365.385 315.375 363.594C314.354 361.781 313.844 359.667 313.844 357.25H321.688C321.688 358.729 321.938 359.99 322.438 361.031C322.958 362.073 323.677 362.927 324.594 363.594C325.51 364.24 326.573 364.719 327.781 365.031C329.01 365.344 330.323 365.5 331.719 365.5C333.552 365.5 335.083 365.24 336.312 364.719C337.562 364.198 338.5 363.469 339.125 362.531C339.75 361.594 340.062 360.51 340.062 359.281Z" fill="white"/>
<defs>
<filter id="filter0_d_3_41" x="0" y="0" width="416" height="216" filterUnits="userSpaceOnUse" color-interpolation-filters="sRGB">
<feFlood flood-opacity="0" result="BackgroundImageFix"/>
<feColorMatrix in="SourceAlpha" type="matrix" values="0 0 0 0 0 0 0 0 0 0 0 0 0 0 0 0 0 0 127 0" result="hardAlpha"/>
<feOffset dx="12" dy="12"/>
<feGaussianBlur stdDeviation="2"/>
<feComposite in2="hardAlpha" operator="out"/>
<feColorMatrix type="matrix" values="0 0 0 0 0.2 0 0 0 0 0.278431 0 0 0 0 0.690196 0 0 0 0.5 0"/>
<feBlend mode="normal" in2="BackgroundImageFix" result="effect1_dropShadow_3_41"/>
<feBlend mode="normal" in="SourceGraphic" in2="effect1_dropShadow_3_41" result="shape"/>
</filter>
<filter id="filter1_d_3_41" x="0" y="250" width="416" height="216" filterUnits="userSpaceOnUse" color-interpolation-filters="sRGB">
<feFlood flood-opacity="0" result="BackgroundImageFix"/>
<feColorMatrix in="SourceAlpha" type="matrix" values="0 0 0 0 0 0 0 0 0 0 0 0 0 0 0 0 0 0 127 0" result="hardAlpha"/>
<feOffset dx="12" dy="12"/>
<feGaussianBlur stdDeviation="2"/>
<feComposite in2="hardAlpha" operator="out"/>
<feColorMatrix type="matrix" values="0 0 0 0 0.2 0 0 0 0 0.278431 0 0 0 0 0.690196 0 0 0 0.5 0"/>
<feBlend mode="normal" in2="BackgroundImageFix" result="effect1_dropShadow_3_41"/>
<feBlend mode="normal" in="SourceGraphic" in2="effect1_dropShadow_3_41" result="shape"/>
</filter>
</defs>
</svg>
