<svg width="416" height="216" viewBox="0 0 416 216" fill="none" xmlns="http://www.w3.org/2000/svg">
<g filter="url(#filter0_d_3_31)">
<rect width="400" height="200" fill="#3347B0"/>
<rect x="0.5" y="0.5" width="399" height="199" stroke="black"/>
</g>
<path d="M135.835 138.713L126.686 136.059C125.726 135.789 125.186 134.784 125.456 133.824L145.93 63.2993C146.2 62.3394 147.205 61.7994 148.165 62.0694L157.314 64.7242C158.274 64.9942 158.814 65.9991 158.544 66.959L138.07 137.484C137.785 138.443 136.795 138.998 135.835 138.713ZM118.737 121.885L125.261 114.925C125.951 114.19 125.906 113.02 125.141 112.345L111.552 100.391L125.141 88.4374C125.906 87.7624 125.966 86.5925 125.261 85.8576L118.737 78.8981C118.062 78.1782 116.922 78.1332 116.187 78.8231L94.5737 99.0715C93.8088 99.7765 93.8088 100.991 94.5737 101.696L116.187 121.96C116.922 122.65 118.062 122.62 118.737 121.885ZM167.813 121.975L189.426 101.711C190.191 101.006 190.191 99.7915 189.426 99.0865L167.813 78.8081C167.093 78.1332 165.953 78.1632 165.263 78.8831L158.739 85.8426C158.049 86.5775 158.094 87.7474 158.859 88.4224L172.448 100.391L158.859 112.345C158.094 113.02 158.034 114.19 158.739 114.925L165.263 121.885C165.938 122.62 167.078 122.65 167.813 121.975Z" fill="white"/>
<path d="M231.844 121H222.125L222.188 114.781H231.844C234.656 114.781 237.01 114.167 238.906 112.938C240.823 111.708 242.26 109.948 243.219 107.656C244.198 105.365 244.688 102.635 244.688 99.4688V97C244.688 94.5417 244.406 92.3646 243.844 90.4688C243.302 88.5729 242.49 86.9792 241.406 85.6875C240.344 84.3958 239.031 83.4167 237.469 82.75C235.927 82.0833 234.146 81.75 232.125 81.75H221.938V75.5H232.125C235.146 75.5 237.906 76.0104 240.406 77.0312C242.906 78.0312 245.062 79.4792 246.875 81.375C248.708 83.2708 250.115 85.5417 251.094 88.1875C252.073 90.8333 252.562 93.7917 252.562 97.0625V99.4688C252.562 102.74 252.073 105.698 251.094 108.344C250.115 110.99 248.708 113.26 246.875 115.156C245.042 117.031 242.854 118.479 240.312 119.5C237.792 120.5 234.969 121 231.844 121ZM226.469 75.5V121H218.625V75.5H226.469ZM284.375 109.281C284.375 108.344 284.229 107.51 283.938 106.781C283.667 106.052 283.177 105.385 282.469 104.781C281.76 104.177 280.76 103.594 279.469 103.031C278.198 102.448 276.573 101.854 274.594 101.25C272.427 100.583 270.427 99.8438 268.594 99.0312C266.781 98.1979 265.198 97.2396 263.844 96.1562C262.49 95.0521 261.438 93.7917 260.688 92.375C259.938 90.9375 259.562 89.2812 259.562 87.4062C259.562 85.5521 259.948 83.8646 260.719 82.3438C261.51 80.8229 262.625 79.5104 264.062 78.4062C265.521 77.2812 267.24 76.4167 269.219 75.8125C271.198 75.1875 273.385 74.875 275.781 74.875C279.156 74.875 282.062 75.5 284.5 76.75C286.958 78 288.844 79.6771 290.156 81.7812C291.49 83.8854 292.156 86.2083 292.156 88.75H284.375C284.375 87.25 284.052 85.9271 283.406 84.7812C282.781 83.6146 281.823 82.6979 280.531 82.0312C279.26 81.3646 277.646 81.0312 275.688 81.0312C273.833 81.0312 272.292 81.3125 271.062 81.875C269.833 82.4375 268.917 83.1979 268.312 84.1562C267.708 85.1146 267.406 86.1979 267.406 87.4062C267.406 88.2604 267.604 89.0417 268 89.75C268.396 90.4375 269 91.0833 269.812 91.6875C270.625 92.2708 271.646 92.8229 272.875 93.3438C274.104 93.8646 275.552 94.3646 277.219 94.8438C279.74 95.5938 281.938 96.4271 283.812 97.3438C285.688 98.2396 287.25 99.2604 288.5 100.406C289.75 101.552 290.688 102.854 291.312 104.312C291.938 105.75 292.25 107.385 292.25 109.219C292.25 111.135 291.865 112.865 291.094 114.406C290.323 115.927 289.219 117.229 287.781 118.312C286.365 119.375 284.656 120.198 282.656 120.781C280.677 121.344 278.469 121.625 276.031 121.625C273.844 121.625 271.688 121.333 269.562 120.75C267.458 120.167 265.542 119.281 263.812 118.094C262.083 116.885 260.708 115.385 259.688 113.594C258.667 111.781 258.156 109.667 258.156 107.25H266C266 108.729 266.25 109.99 266.75 111.031C267.271 112.073 267.99 112.927 268.906 113.594C269.823 114.24 270.885 114.719 272.094 115.031C273.323 115.344 274.635 115.5 276.031 115.5C277.865 115.5 279.396 115.24 280.625 114.719C281.875 114.198 282.812 113.469 283.438 112.531C284.062 111.594 284.375 110.51 284.375 109.281Z" fill="white"/>
<defs>
<filter id="filter0_d_3_31" x="0" y="0" width="416" height="216" filterUnits="userSpaceOnUse" color-interpolation-filters="sRGB">
<feFlood flood-opacity="0" result="BackgroundImageFix"/>
<feColorMatrix in="SourceAlpha" type="matrix" values="0 0 0 0 0 0 0 0 0 0 0 0 0 0 0 0 0 0 127 0" result="hardAlpha"/>
<feOffset dx="12" dy="12"/>
<feGaussianBlur stdDeviation="2"/>
<feComposite in2="hardAlpha" operator="out"/>
<feColorMatrix type="matrix" values="0 0 0 0 0.2 0 0 0 0 0.278431 0 0 0 0 0.690196 0 0 0 0.5 0"/>
<feBlend mode="normal" in2="BackgroundImageFix" result="effect1_dropShadow_3_31"/>
<feBlend mode="normal" in="SourceGraphic" in2="effect1_dropShadow_3_31" result="shape"/>
</filter>
</defs>
</svg>
