<svg width="124" height="43" viewBox="0 0 124 43" fill="none" xmlns="http://www.w3.org/2000/svg">
<path d="M47.3735 14.7874L35.3733 26.1194C34.1083 27.314 32 26.4284 32 24.6654V18.6685C19.9521 18.7494 14.8695 21.5946 18.2688 32.9479C18.6423 34.1957 17.1982 35.1618 16.1849 34.3921C12.9377 31.9254 10 27.2074 10 22.4449C10 10.4502 19.7999 8.06994 32 8.00227V2.00102C32 0.236519 34.1098 -0.646315 35.3733 0.547019L47.3735 11.8794C48.2085 12.6679 48.2092 13.9981 47.3735 14.7874ZM32 31.594V37.3334H5.33333V10.6667H9.57633C9.711 10.6666 9.84425 10.6393 9.9681 10.5864C10.0919 10.5335 10.2038 10.4562 10.297 10.3589C11.5431 9.0616 12.9834 8.03477 14.5482 7.21927C15.4757 6.73585 15.132 5.33335 14.0861 5.33335H4C1.79083 5.33335 0 7.12419 0 9.33335V38.6667C0 40.8759 1.79083 42.6667 4 42.6667H33.3333C35.5425 42.6667 37.3333 40.8759 37.3333 38.6667V31.2662C37.3333 30.5755 36.6503 30.094 35.9991 30.3244C35.0861 30.6472 34.1085 30.7438 33.15 30.6058C32.5442 30.5186 32 30.9819 32 31.594Z" fill="white"/>
<path d="M76.0664 26.7415C76.0664 26.2142 75.9844 25.7455 75.8203 25.3353C75.668 24.9251 75.3926 24.5501 74.9941 24.2103C74.5957 23.8705 74.0332 23.5423 73.3066 23.2259C72.5918 22.8978 71.6777 22.5638 70.5645 22.224C69.3457 21.849 68.2207 21.433 67.1895 20.9759C66.1699 20.5072 65.2793 19.9681 64.5176 19.3587C63.7559 18.7376 63.1641 18.0287 62.7422 17.2318C62.3203 16.4232 62.1094 15.4915 62.1094 14.4369C62.1094 13.3939 62.3262 12.4447 62.7598 11.5892C63.2051 10.7337 63.832 9.99545 64.6406 9.37436C65.4609 8.74155 66.4277 8.25522 67.541 7.91537C68.6543 7.56381 69.8848 7.38803 71.2324 7.38803C73.1309 7.38803 74.7656 7.73959 76.1367 8.44272C77.5195 9.14584 78.5801 10.0892 79.3184 11.2728C80.0684 12.4564 80.4434 13.763 80.4434 15.1927H76.0664C76.0664 14.349 75.8848 13.6048 75.5215 12.9603C75.1699 12.304 74.6309 11.7884 73.9043 11.4134C73.1895 11.0384 72.2812 10.8509 71.1797 10.8509C70.1367 10.8509 69.2695 11.0091 68.5781 11.3255C67.8867 11.6419 67.3711 12.0697 67.0312 12.6087C66.6914 13.1478 66.5215 13.7572 66.5215 14.4369C66.5215 14.9173 66.6328 15.3568 66.8555 15.7552C67.0781 16.1419 67.418 16.5052 67.875 16.8451C68.332 17.1732 68.9062 17.4837 69.5977 17.7767C70.2891 18.0697 71.1035 18.3509 72.041 18.6205C73.459 19.0423 74.6953 19.5111 75.75 20.0267C76.8047 20.5306 77.6836 21.1048 78.3867 21.7494C79.0898 22.3939 79.6172 23.1263 79.9688 23.9466C80.3203 24.7552 80.4961 25.6751 80.4961 26.7064C80.4961 27.7845 80.2793 28.7572 79.8457 29.6244C79.4121 30.4798 78.791 31.2122 77.9824 31.8216C77.1855 32.4193 76.2246 32.8822 75.0996 33.2103C73.9863 33.5267 72.7441 33.6849 71.373 33.6849C70.1426 33.6849 68.9297 33.5208 67.7344 33.1927C66.5508 32.8646 65.4727 32.3665 64.5 31.6986C63.5273 31.0189 62.7539 30.1751 62.1797 29.1673C61.6055 28.1478 61.3184 26.9583 61.3184 25.599H65.7305C65.7305 26.431 65.8711 27.14 66.1523 27.7259C66.4453 28.3119 66.8496 28.7923 67.3652 29.1673C67.8809 29.5306 68.4785 29.8001 69.1582 29.9759C69.8496 30.1517 70.5879 30.2396 71.373 30.2396C72.4043 30.2396 73.2656 30.0931 73.957 29.8001C74.6602 29.5072 75.1875 29.097 75.5391 28.5697C75.8906 28.0423 76.0664 27.433 76.0664 26.7415ZM94.6992 29.5189V20.4486C94.6992 19.7689 94.5762 19.183 94.3301 18.6908C94.084 18.1986 93.709 17.8177 93.2051 17.5482C92.7129 17.2787 92.0918 17.1439 91.3418 17.1439C90.6504 17.1439 90.0527 17.2611 89.5488 17.4955C89.0449 17.7298 88.6523 18.0462 88.3711 18.4447C88.0898 18.8431 87.9492 19.2943 87.9492 19.7982H83.7305C83.7305 19.0482 83.9121 18.3216 84.2754 17.6185C84.6387 16.9154 85.166 16.2884 85.8574 15.7376C86.5488 15.1869 87.375 14.7533 88.3359 14.4369C89.2969 14.1205 90.375 13.9622 91.5703 13.9622C93 13.9622 94.2656 14.2025 95.3672 14.683C96.4805 15.1634 97.3535 15.89 97.9863 16.8626C98.6309 17.8236 98.9531 19.0306 98.9531 20.4837V28.9388C98.9531 29.806 99.0117 30.5853 99.1289 31.2767C99.2578 31.9564 99.4395 32.5482 99.6738 33.0521V33.3333H95.332C95.1328 32.8763 94.9746 32.2962 94.8574 31.5931C94.752 30.8783 94.6992 30.1869 94.6992 29.5189ZM95.3145 21.7669L95.3496 24.3861H92.3086C91.5234 24.3861 90.832 24.4622 90.2344 24.6146C89.6367 24.7552 89.1387 24.9662 88.7402 25.2474C88.3418 25.5287 88.043 25.8685 87.8438 26.2669C87.6445 26.6654 87.5449 27.1165 87.5449 27.6205C87.5449 28.1244 87.6621 28.5872 87.8965 29.0091C88.1309 29.4193 88.4707 29.7415 88.916 29.9759C89.373 30.2103 89.9238 30.3275 90.5684 30.3275C91.4355 30.3275 92.1914 30.1517 92.8359 29.8001C93.4922 29.4369 94.0078 28.9974 94.3828 28.4818C94.7578 27.9544 94.957 27.4564 94.9805 26.9876L96.3516 28.8685C96.2109 29.349 95.9707 29.8646 95.6309 30.4154C95.291 30.9662 94.8457 31.4935 94.2949 31.9974C93.7559 32.4896 93.1055 32.8939 92.3438 33.2103C91.5938 33.5267 90.7266 33.6849 89.7422 33.6849C88.5 33.6849 87.3926 33.4388 86.4199 32.9466C85.4473 32.4427 84.6855 31.7689 84.1348 30.9251C83.584 30.0697 83.3086 29.1029 83.3086 28.0247C83.3086 27.0169 83.4961 26.1263 83.8711 25.3529C84.2578 24.5677 84.8203 23.9115 85.5586 23.3841C86.3086 22.8568 87.2227 22.4583 88.3008 22.1888C89.3789 21.9076 90.6094 21.7669 91.9922 21.7669H95.3145ZM107.918 14.3138V33.3333H103.664V14.3138H107.918ZM103.383 9.32162C103.383 8.67709 103.594 8.14389 104.016 7.72202C104.449 7.28842 105.047 7.07162 105.809 7.07162C106.559 7.07162 107.15 7.28842 107.584 7.72202C108.018 8.14389 108.234 8.67709 108.234 9.32162C108.234 9.95444 108.018 10.4818 107.584 10.9037C107.15 11.3255 106.559 11.5365 105.809 11.5365C105.047 11.5365 104.449 11.3255 104.016 10.9037C103.594 10.4818 103.383 9.95444 103.383 9.32162ZM116.812 17.9349V33.3333H112.576V14.3138H116.619L116.812 17.9349ZM122.631 14.1908L122.596 18.1283C122.338 18.0814 122.057 18.0462 121.752 18.0228C121.459 17.9994 121.166 17.9876 120.873 17.9876C120.146 17.9876 119.508 18.0931 118.957 18.304C118.406 18.5033 117.943 18.7962 117.568 19.183C117.205 19.558 116.924 20.015 116.725 20.554C116.525 21.0931 116.408 21.6966 116.373 22.3646L115.406 22.4349C115.406 21.2396 115.523 20.1322 115.758 19.1126C115.992 18.0931 116.344 17.1966 116.812 16.4232C117.293 15.6497 117.891 15.0462 118.605 14.6126C119.332 14.179 120.17 13.9622 121.119 13.9622C121.377 13.9622 121.652 13.9857 121.945 14.0326C122.25 14.0794 122.479 14.1322 122.631 14.1908Z" fill="white"/>
</svg>
